REM DIRINDEX 1\2,1\3,1\4,1\5,1\6,1\7,1\8
REM DIRNAME folder01,folder02,folder03,folder04,folder05,folder06,folder07,folder08
TITLE ""
FILE "002 ‚Å‚é•¶42.mp3" MP3
  TRACK 01 AUDIO
    TITLE "0:"
    INDEX 01 00:00:00
  TRACK 02 AUDIO
    TITLE "8:cjc150_1954"
    INDEX 01 00:00:01
  TRACK 03 AUDIO
    TITLE "0:"
    INDEX 01 00:01:52
  TRACK 04 AUDIO
    TITLE "2:cjc150_1955"
    INDEX 01 00:02:47
  TRACK 05 AUDIO
    TITLE "0:"
    INDEX 01 00:09:57
  TRACK 06 AUDIO
    TITLE "8:cjc150_1956"
    INDEX 01 00:11:13
  TRACK 07 AUDIO
    TITLE "0:"
    INDEX 01 00:13:65
  TRACK 08 AUDIO
    TITLE "3:cjc150_1957"
    INDEX 01 00:14:54
  TRACK 09 AUDIO
    TITLE "3:cjc150_1958"
    INDEX 01 00:16:48
  TRACK 10 AUDIO
    TITLE "3:cjc150_1959"
    INDEX 01 00:18:35
  TRACK 11 AUDIO
    TITLE "3:cjc150_1960"
    INDEX 01 00:20:32
  TRACK 12 AUDIO
    TITLE "3:cjc150_1961"
    INDEX 01 00:22:23
  TRACK 13 AUDIO
    TITLE "3:cjc150_1962"
    INDEX 01 00:24:35
  TRACK 14 AUDIO
    TITLE "3:cjc150_1963"
    INDEX 01 00:26:42
  TRACK 15 AUDIO
    TITLE "3:cjc150_1964"
    INDEX 01 00:28:17
  TRACK 16 AUDIO
    TITLE "3:cjc150_1965"
    INDEX 01 00:29:66
  TRACK 17 AUDIO
    TITLE "3:cjc150_1966"
    INDEX 01 00:31:55
  TRACK 18 AUDIO
    TITLE "8:cjc150_1967"
    INDEX 01 00:33:50
  TRACK 19 AUDIO
    TITLE "0:"
    INDEX 01 00:36:27
  TRACK 20 AUDIO
    TITLE "4:cjc150_1968"
    INDEX 01 00:37:14
  TRACK 21 AUDIO
    TITLE "4:cjc150_1969"
    INDEX 01 00:39:03
  TRACK 22 AUDIO
    TITLE "4:cjc150_1970"
    INDEX 01 00:41:32
  TRACK 23 AUDIO
    TITLE "4:cjc150_1971"
    INDEX 01 00:44:60
  TRACK 24 AUDIO
    TITLE "4:cjc150_1972"
    INDEX 01 00:48:48
  TRACK 25 AUDIO
    TITLE "4:cjc150_1973"
    INDEX 01 00:51:54
  TRACK 26 AUDIO
    TITLE "8:cjc150_1974"
    INDEX 01 00:55:18
  TRACK 27 AUDIO
    TITLE "0:"
    INDEX 01 00:58:13
  TRACK 28 AUDIO
    TITLE "5:cjc150_1975"
    INDEX 01 00:58:73
  TRACK 29 AUDIO
    TITLE "5:cjc150_1976"
    INDEX 01 01:01:13
  TRACK 30 AUDIO
    TITLE "5:cjc150_1977"
    INDEX 01 01:04:05
  TRACK 31 AUDIO
    TITLE "5:cjc150_1978"
    INDEX 01 01:05:69
  TRACK 32 AUDIO
    TITLE "5:cjc150_1979"
    INDEX 01 01:07:63
  TRACK 33 AUDIO
    TITLE "5:cjc150_1980"
    INDEX 01 01:10:12
  TRACK 34 AUDIO
    TITLE "5:cjc150_1981"
    INDEX 01 01:13:00
  TRACK 35 AUDIO
    TITLE "5:cjc150_1982"
    INDEX 01 01:14:72
  TRACK 36 AUDIO
    TITLE "5:cjc150_1983"
    INDEX 01 01:16:61
  TRACK 37 AUDIO
    TITLE "5:cjc150_1984"
    INDEX 01 01:19:34
  TRACK 38 AUDIO
    TITLE "5:cjc150_1985"
    INDEX 01 01:21:41
  TRACK 39 AUDIO
    TITLE "5:cjc150_1986"
    INDEX 01 01:23:54
  TRACK 40 AUDIO
    TITLE "5:cjc150_1987"
    INDEX 01 01:25:57
  TRACK 41 AUDIO
    TITLE "5:cjc150_1988"
    INDEX 01 01:28:59
  TRACK 42 AUDIO
    TITLE "5:cjc150_1989"
    INDEX 01 01:31:20
  TRACK 43 AUDIO
    TITLE "5:cjc150_1990"
    INDEX 01 01:32:70
  TRACK 44 AUDIO
    TITLE "5:cjc150_1991"
    INDEX 01 01:34:38
  TRACK 45 AUDIO
    TITLE "5:cjc150_1992"
    INDEX 01 01:36:48
  TRACK 46 AUDIO
    TITLE "5:cjc150_1993"
    INDEX 01 01:38:36
  TRACK 47 AUDIO
    TITLE "5:cjc150_1994"
    INDEX 01 01:40:31
  TRACK 48 AUDIO
    TITLE "8:cjc150_1995"
    INDEX 01 01:42:18
  TRACK 49 AUDIO
    TITLE "0:"
    INDEX 01 01:44:73
  TRACK 50 AUDIO
    TITLE "6:cjc150_1996"
    INDEX 01 01:45:63
  TRACK 51 AUDIO
    TITLE "6:cjc150_1997"
    INDEX 01 01:47:72
  TRACK 52 AUDIO
    TITLE "6:cjc150_1998"
    INDEX 01 01:50:51
  TRACK 53 AUDIO
    TITLE "6:cjc150_1999"
    INDEX 01 01:52:44
  TRACK 54 AUDIO
    TITLE "6:cjc150_2000"
    INDEX 01 01:54:29
  TRACK 55 AUDIO
    TITLE "6:cjc150_2001"
    INDEX 01 01:58:09
  TRACK 56 AUDIO
    TITLE "6:cjc150_2002"
    INDEX 01 02:02:18
  TRACK 57 AUDIO
    TITLE "6:cjc150_2003"
    INDEX 01 02:05:46
  TRACK 58 AUDIO
    TITLE "6:cjc150_2004"
    INDEX 01 02:08:62
  TRACK 59 AUDIO
    TITLE "6:cjc150_2005"
    INDEX 01 02:12:70
  TRACK 60 AUDIO
    TITLE "6:cjc150_2006"
    INDEX 01 02:16:64
  TRACK 61 AUDIO
    TITLE "6:cjc150_2007"
    INDEX 01 02:19:68
  TRACK 62 AUDIO
    TITLE "8:cjc150_2008"
    INDEX 01 02:22:23
  TRACK 63 AUDIO
    TITLE "0:"
    INDEX 01 02:24:02
  TRACK 64 AUDIO
    TITLE "7:cjc150_2009"
    INDEX 01 02:24:63
  TRACK 65 AUDIO
    TITLE "7:cjc150_2010"
    INDEX 01 02:31:73
  TRACK 66 AUDIO
    TITLE "0:"
    INDEX 01 02:38:65
